<svg width="384" height="324" viewBox="0 0 384 324" fill="none" xmlns="http://www.w3.org/2000/svg">
<path d="M101.166 182.167V141.833H383.5V182.167H101.166ZM101.166 303.167V262.833H383.5V303.167H101.166ZM101.166 61.1666V20.8333H383.5V61.1666H101.166ZM20.4997 81.3333V20.8333H0.333008V0.666626H40.6663V81.3333H20.4997ZM0.333008 262.833V242.667H60.833V323.333H0.333008V303.167H40.6663V293.083H20.4997V272.917H40.6663V262.833H0.333008ZM45.708 121.667C49.7194 121.667 53.5665 123.26 56.403 126.097C59.2395 128.933 60.833 132.78 60.833 136.792C60.833 140.825 59.2197 144.657 56.598 147.278L22.9197 182.167H60.833V202.333H0.333008V183.78L40.6663 141.833H0.333008V121.667H45.708Z" fill="black"/>
</svg>
