<svg width="199" height="221" viewBox="0 0 199 221" fill="none" xmlns="http://www.w3.org/2000/svg">
<path d="M99.375 0C125.731 0 151.007 10.4698 169.644 29.1063C188.28 47.7427 198.75 73.0191 198.75 99.375H110.417V187.708C110.417 196.494 106.927 204.919 100.715 211.131C94.5024 217.343 86.077 220.833 77.2917 220.833C68.5064 220.833 60.0809 217.343 53.8688 211.131C47.6566 204.919 44.1667 196.494 44.1667 187.708V176.667H66.25V187.708C66.25 190.637 67.4133 193.445 69.484 195.516C71.5547 197.587 74.3632 198.75 77.2917 198.75C80.2201 198.75 83.0286 197.587 85.0993 195.516C87.17 193.445 88.3333 190.637 88.3333 187.708V99.375H0C0 73.0191 10.4698 47.7427 29.1063 29.1063C47.7427 10.4698 73.0191 0 99.375 0V0Z" fill="black"/>
</svg>
