<svg width="448" height="420" viewBox="0 0 448 420" fill="none" xmlns="http://www.w3.org/2000/svg">
<path d="M116.125 308.337C117.868 308.918 119.48 309.837 120.867 311.041C122.255 312.246 123.392 313.712 124.213 315.356C125.033 317 125.522 318.79 125.65 320.623C125.779 322.456 125.545 324.296 124.962 326.038L110.98 367.986C109.707 371.371 107.172 374.131 103.907 375.686C100.642 377.242 96.9014 377.472 93.4705 376.329C90.0396 375.185 87.1852 372.756 85.5068 369.553C83.8284 366.35 83.4564 362.62 84.469 359.149L98.4514 317.201C99.6198 313.682 102.138 310.772 105.453 309.109C108.767 307.447 112.606 307.169 116.125 308.337ZM200.019 308.337C201.763 308.918 203.374 309.837 204.762 311.041C206.149 312.246 207.286 313.712 208.107 315.356C208.928 317 209.416 318.79 209.545 320.623C209.673 322.456 209.439 324.296 208.856 326.038L180.892 409.933C179.619 413.318 177.083 416.078 173.819 417.633C170.554 419.189 166.813 419.419 163.382 418.276C159.951 417.132 157.097 414.704 155.419 411.5C153.74 408.297 153.368 404.568 154.381 401.096L182.346 317.201C183.514 313.682 186.032 310.772 189.347 309.109C192.661 307.447 196.5 307.169 200.019 308.337V308.337ZM283.914 308.337C285.657 308.918 287.268 309.837 288.656 311.041C290.044 312.246 291.18 313.712 292.001 315.356C292.822 317 293.31 318.79 293.439 320.623C293.568 322.456 293.334 324.296 292.751 326.038L278.768 367.986C277.495 371.371 274.96 374.131 271.695 375.686C268.431 377.242 264.69 377.472 261.259 376.329C257.828 375.185 254.974 372.756 253.295 369.553C251.617 366.35 251.245 362.62 252.258 359.149L266.24 317.201C267.408 313.682 269.927 310.772 273.241 309.109C276.555 307.447 280.394 307.169 283.914 308.337ZM367.808 308.337C369.551 308.918 371.163 309.837 372.55 311.041C373.938 312.246 375.075 313.712 375.895 315.356C376.716 317 377.205 318.79 377.333 320.623C377.462 322.456 377.228 324.296 376.645 326.038L348.68 409.933C348.153 411.738 347.268 413.419 346.077 414.874C344.885 416.33 343.412 417.53 341.746 418.403C340.08 419.276 338.255 419.804 336.381 419.955C334.506 420.106 332.62 419.877 330.835 419.282C329.051 418.688 327.405 417.739 325.996 416.493C324.587 415.247 323.443 413.73 322.634 412.032C321.825 410.334 321.367 408.491 321.287 406.611C321.207 404.732 321.507 402.856 322.17 401.096L350.134 317.201C351.303 313.682 353.821 310.772 357.135 309.109C360.45 307.447 364.289 307.169 367.808 308.337ZM374.715 112.639C368.908 83.3647 353.888 56.7156 331.851 36.5885C309.814 16.4614 281.916 3.91185 252.236 0.774845C222.557 -2.36216 192.652 4.07786 166.894 19.1533C141.136 34.2288 120.877 57.1489 109.078 84.5626C95.8461 83.0383 82.4424 84.2307 69.6873 88.0668C56.9323 91.9029 45.0945 98.302 34.8986 106.872C24.7027 115.443 16.3633 126.004 10.3909 137.909C4.41863 149.814 0.939065 162.813 0.165303 176.11C-0.608459 189.407 1.33986 202.722 5.89098 215.24C10.4421 227.758 17.5002 239.215 26.6333 248.91C35.7663 258.605 46.782 266.334 59.006 271.623C71.23 276.913 84.4049 279.652 97.7243 279.673H363.39C384.674 279.697 405.172 271.631 420.731 257.107C436.29 242.584 445.748 222.689 447.188 201.454C448.627 180.218 441.942 159.23 428.486 142.739C415.029 126.248 395.808 115.488 374.715 112.639V112.639ZM237.548 27.9899C265.064 27.9842 291.617 38.1207 312.13 56.4612C332.642 74.8017 345.675 100.059 348.736 127.405C349.116 130.84 350.756 134.014 353.338 136.312C355.92 138.61 359.262 139.87 362.718 139.849H363.39C378.223 139.849 392.449 145.742 402.938 156.23C413.427 166.719 419.319 180.945 419.319 195.778C419.319 210.612 413.427 224.838 402.938 235.327C392.449 245.815 378.223 251.708 363.39 251.708H97.7243C87.8268 251.703 78.0432 249.597 69.0206 245.528C59.9981 241.46 51.9422 235.522 45.3859 228.107C38.8296 220.693 33.9223 211.971 30.9887 202.518C28.0551 193.065 27.162 183.097 28.3686 173.274C29.5751 163.45 32.8537 153.995 37.9875 145.533C43.1214 137.071 49.9934 129.795 58.149 124.188C66.3047 118.58 75.558 114.768 85.297 113.004C95.0359 111.24 105.038 111.563 114.643 113.954C118.069 114.808 121.692 114.335 124.784 112.628C127.876 110.921 130.207 108.108 131.31 104.753C138.701 82.4142 152.944 62.9729 172.016 49.1922C191.088 35.4116 214.018 27.9927 237.548 27.9899V27.9899Z" fill="black"/>
</svg>
