<svg width="419" height="419" viewBox="0 0 419 419" fill="none" xmlns="http://www.w3.org/2000/svg">
<path d="M209.5 66C212.815 66 215.995 64.7123 218.339 62.4202C220.683 60.1281 222 57.0193 222 53.7778V12.2222C222 8.98069 220.683 5.87192 218.339 3.57981C215.995 1.28769 212.815 0 209.5 0C206.185 0 203.005 1.28769 200.661 3.57981C198.317 5.87192 197 8.98069 197 12.2222V53.7778C197 57.0193 198.317 60.1281 200.661 62.4202C203.005 64.7123 206.185 66 209.5 66Z" fill="black"/>
<path d="M209.5 353C206.185 353 203.005 354.288 200.661 356.58C198.317 358.872 197 361.981 197 365.222V406.778C197 410.019 198.317 413.128 200.661 415.42C203.005 417.712 206.185 419 209.5 419C212.815 419 215.995 417.712 218.339 415.42C220.683 413.128 222 410.019 222 406.778V365.222C222 361.981 220.683 358.872 218.339 356.58C215.995 354.288 212.815 353 209.5 353Z" fill="black"/>
<path d="M91.3476 108.81C93.6257 110.884 96.5998 112.022 99.6782 112C101.29 112.009 102.889 111.7 104.381 111.089C105.874 110.479 107.232 109.579 108.376 108.442C109.524 107.302 110.436 105.945 111.058 104.45C111.68 102.955 112 101.352 112 99.7325C112 98.1131 111.68 96.5097 111.058 95.0149C110.436 93.52 109.524 92.1632 108.376 91.0229L79.2194 61.9497C76.8758 59.94 73.8612 58.8899 70.7779 59.0091C67.6947 59.1284 64.77 60.4083 62.5882 62.593C60.4064 64.7777 59.1282 67.7063 59.0091 70.7937C58.89 73.881 59.9388 76.8997 61.9458 79.2464L91.3476 108.81Z" fill="black"/>
<path d="M328.013 310.664C326.87 309.503 325.513 308.581 324.02 307.952C322.526 307.324 320.926 307 319.309 307C317.693 307 316.092 307.324 314.599 307.952C313.105 308.581 311.748 309.503 310.605 310.664C309.462 311.826 308.556 313.205 307.937 314.723C307.318 316.241 307 317.868 307 319.511C307 321.154 307.318 322.781 307.937 324.299C308.556 325.817 309.462 327.196 310.605 328.358L340.15 358.262C341.285 359.439 342.639 360.376 344.133 361.018C345.627 361.659 347.232 361.993 348.854 362C352.087 361.953 355.172 360.61 357.435 358.262C359.718 355.927 361 352.769 361 349.478C361 346.186 359.718 343.028 357.435 340.693L328.013 310.664Z" fill="black"/>
<path d="M66 209.5C66 206.185 64.7123 203.005 62.4202 200.661C60.1281 198.317 57.0193 197 53.7778 197H12.2222C8.98069 197 5.87192 198.317 3.57981 200.661C1.28769 203.005 0 206.185 0 209.5C0 212.815 1.28769 215.995 3.57981 218.339C5.87192 220.683 8.98069 222 12.2222 222H53.7778C57.0193 222 60.1281 220.683 62.4202 218.339C64.7123 215.995 66 212.815 66 209.5Z" fill="black"/>
<path d="M406.778 197H365.222C361.981 197 358.872 198.317 356.58 200.661C354.288 203.005 353 206.185 353 209.5C353 212.815 354.288 215.995 356.58 218.339C358.872 220.683 361.981 222 365.222 222H406.778C410.019 222 413.128 220.683 415.42 218.339C417.712 215.995 419 212.815 419 209.5C419 206.185 417.712 203.005 415.42 200.661C413.128 198.317 410.019 197 406.778 197Z" fill="black"/>
<path d="M91.0106 310.664L61.6222 340.693C59.9027 342.429 58.7275 344.644 58.2453 347.059C57.763 349.474 57.9953 351.98 58.9128 354.26C59.8302 356.541 61.3917 358.494 63.3997 359.871C65.4077 361.249 67.7721 361.99 70.1938 362C71.814 361.993 73.4167 361.659 74.909 361.018C76.4014 360.376 77.7538 359.439 78.8879 358.262L108.399 328.358C110.705 326.011 112 322.829 112 319.511C112 316.193 110.705 313.011 108.399 310.664C106.093 308.318 102.966 307 99.7047 307C96.4438 307 93.3164 308.318 91.0106 310.664Z" fill="black"/>
<path d="M320.325 112C321.938 112.009 323.537 111.7 325.03 111.089C326.523 110.478 327.881 109.579 329.026 108.441L358.437 78.8695C360.719 76.5705 362 73.4605 362 70.2188C362 66.9772 360.719 63.8672 358.437 61.5682C356.141 59.2828 353.035 58 349.797 58C346.56 58 343.454 59.2828 341.158 61.5682L311.625 91.0173C310.476 92.158 309.565 93.5151 308.942 95.0104C308.32 96.5057 308 98.1095 308 99.7293C308 101.349 308.32 102.953 308.942 104.448C309.565 105.944 310.476 107.301 311.625 108.441C312.77 109.579 314.128 110.478 315.621 111.089C317.114 111.7 318.713 112.009 320.325 112Z" fill="black"/>
<path d="M211.097 84.0102C186.408 83.6946 162.182 90.698 141.499 104.13C120.816 117.562 104.61 136.816 94.9419 159.444C85.2734 182.073 82.5788 207.054 87.2007 231.211C91.8226 255.369 103.552 277.612 120.898 295.113C138.245 312.614 160.424 324.583 184.617 329.498C208.81 334.413 233.924 332.052 256.767 322.716C279.609 313.379 299.148 297.488 312.9 277.063C326.653 256.639 333.996 232.602 333.998 208.01C334.162 175.349 321.317 143.955 298.279 120.711C275.241 97.467 243.889 84.269 211.097 84.0102ZM211.097 307.406C191.265 307.722 171.787 302.152 155.144 291.405C138.5 280.658 125.445 265.221 117.641 247.059C109.836 228.897 107.635 208.833 111.318 189.421C115.001 170.01 124.401 152.129 138.322 138.056C152.243 123.984 170.053 114.356 189.486 110.399C208.919 106.442 229.095 108.335 247.444 115.837C265.793 123.339 281.485 136.111 292.521 152.526C303.558 168.94 309.44 188.255 309.418 208.01C309.549 234.158 299.28 259.293 280.855 277.919C262.43 296.546 237.349 307.147 211.097 307.406Z" fill="black"/>
</svg>
