<svg width="321" height="321" viewBox="0 0 321 321" fill="none" xmlns="http://www.w3.org/2000/svg">
<path d="M119.167 0C150.772 0 181.082 12.555 203.43 34.9031C225.778 57.2512 238.333 87.5617 238.333 119.167C238.333 148.683 227.517 175.817 209.733 196.717L214.683 201.667H229.167L320.833 293.333L293.333 320.833L201.667 229.167V214.683L196.717 209.733C175.093 228.191 147.596 238.332 119.167 238.333C87.5617 238.333 57.2512 225.778 34.9031 203.43C12.555 181.082 0 150.772 0 119.167C0 87.5617 12.555 57.2512 34.9031 34.9031C57.2512 12.555 87.5617 0 119.167 0V0ZM119.167 36.6667C73.3333 36.6667 36.6667 73.3333 36.6667 119.167C36.6667 165 73.3333 201.667 119.167 201.667C165 201.667 201.667 165 201.667 119.167C201.667 73.3333 165 36.6667 119.167 36.6667Z" fill="black"/>
</svg>
