<svg width="111" height="221" viewBox="0 0 111 221" fill="none" xmlns="http://www.w3.org/2000/svg">
<path d="M88.3333 121.458V33.125C88.3333 24.3397 84.8434 15.9142 78.6312 9.70209C72.4191 3.48995 63.9936 0 55.2083 0C46.423 0 37.9976 3.48995 31.7854 9.70209C25.5733 15.9142 22.0833 24.3397 22.0833 33.125V121.458C12.8135 128.411 5.96618 138.103 2.51123 149.164C-0.943715 160.224 -0.831103 172.091 2.83311 183.083C6.49733 194.076 13.5274 203.637 22.9275 210.412C32.3275 217.188 43.6211 220.833 55.2083 220.833C66.7956 220.833 78.0891 217.188 87.4892 210.412C96.8893 203.637 103.919 194.076 107.584 183.083C111.248 172.091 111.36 160.224 107.905 149.164C104.45 138.103 97.6031 128.411 88.3333 121.458V121.458ZM55.2083 22.0833C58.1368 22.0833 60.9453 23.2467 63.016 25.3174C65.0867 27.3881 66.25 30.1966 66.25 33.125V66.25H44.1667V33.125C44.1667 30.1966 45.33 27.3881 47.4007 25.3174C49.4714 23.2467 52.2799 22.0833 55.2083 22.0833V22.0833Z" fill="black"/>
</svg>
