<svg width="370" height="373" viewBox="0 0 370 373" fill="none" xmlns="http://www.w3.org/2000/svg">
<path d="M145.062 372.75H92.3125C85.3206 372.739 78.6181 369.931 73.6741 364.94C68.7301 359.949 65.948 353.183 65.9375 346.125V239.625H92.3125V346.125H145.062V239.625H171.438V346.125C171.427 353.183 168.645 359.949 163.701 364.94C158.757 369.931 152.054 372.739 145.062 372.75Z" fill="black"/>
<path d="M303.312 239.625H280.234L250.562 359.85L221.445 239.625H197.812L230.781 372.75H270.344L303.312 239.625Z" fill="black"/>
<path d="M171.438 0H197.812V66.5625H171.438V0Z" fill="black"/>
<path d="M259.622 91.8562L305.857 45.1693L324.505 64.0065L278.269 110.68L259.622 91.8562Z" fill="black"/>
<path d="M303.312 173.062H369.25V199.688H303.312V173.062Z" fill="black"/>
<path d="M0 173.062H65.9375V199.688H0V173.062Z" fill="black"/>
<path d="M44.7588 64.0065L63.4059 45.1693L109.641 91.8562L90.9942 110.68L44.7588 64.0065Z" fill="black"/>
<path d="M263.75 199.688H237.375V186.375C237.375 172.252 231.817 158.708 221.925 148.722C212.032 138.735 198.615 133.125 184.625 133.125C170.635 133.125 157.218 138.735 147.325 148.722C137.433 158.708 131.875 172.252 131.875 186.375V199.688H105.5V186.375C105.5 165.191 113.836 144.874 128.675 129.895C143.514 114.915 163.64 106.5 184.625 106.5C205.61 106.5 225.736 114.915 240.575 129.895C255.414 144.874 263.75 165.191 263.75 186.375V199.688Z" fill="black"/>
</svg>
