<svg width="292" height="307" viewBox="0 0 292 307" fill="none" xmlns="http://www.w3.org/2000/svg">
<path d="M15.3333 122.667C11.2667 122.667 7.36659 121.051 4.49103 118.176C1.61547 115.3 0 111.4 0 107.333C0 103.267 1.61547 99.3666 4.49103 96.491C7.36659 93.6155 11.2667 92 15.3333 92H138C146.133 92 153.933 88.7691 159.685 83.0179C165.436 77.2668 168.667 69.4666 168.667 61.3333C168.667 53.2 165.436 45.3998 159.685 39.6487C153.933 33.8976 146.133 30.6667 138 30.6667C129.567 30.6667 121.9 34.04 116.38 39.7133C114.985 41.2025 113.298 42.3896 111.426 43.2011C109.553 44.0126 107.534 44.4313 105.493 44.4313C103.453 44.4313 101.433 44.0126 99.5608 43.2011C97.6883 42.3896 96.0021 41.2025 94.6067 39.7133C88.6267 33.7333 88.6267 23.92 94.6067 17.94C105.8 6.9 121.133 0 138 0C154.267 0 169.867 6.46189 181.369 17.9641C192.871 29.4664 199.333 45.0667 199.333 61.3333C199.333 77.5999 192.871 93.2003 181.369 104.703C169.867 116.205 154.267 122.667 138 122.667H15.3333ZM245.333 153.333C249.4 153.333 253.3 151.718 256.176 148.842C259.051 145.967 260.667 142.067 260.667 138C260.667 133.933 259.051 130.033 256.176 127.158C253.3 124.282 249.4 122.667 245.333 122.667C241.04 122.667 237.207 124.353 234.447 127.113C233.028 128.535 231.343 129.663 229.488 130.432C227.633 131.201 225.645 131.597 223.637 131.597C221.628 131.597 219.64 131.201 217.785 130.432C215.93 129.663 214.245 128.535 212.827 127.113C207 121.133 207 111.473 212.827 105.493C221.107 97.2133 232.607 92 245.333 92C257.533 92 269.234 96.8464 277.86 105.473C286.487 114.1 291.333 125.8 291.333 138C291.333 150.2 286.487 161.9 277.86 170.527C269.234 179.154 257.533 184 245.333 184H30.6667C26.6 184 22.6999 182.385 19.8244 179.509C16.9488 176.633 15.3333 172.733 15.3333 168.667C15.3333 164.6 16.9488 160.7 19.8244 157.824C22.6999 154.949 26.6 153.333 30.6667 153.333H245.333ZM230 245.333H15.3333C11.2667 245.333 7.36659 243.718 4.49103 240.842C1.61547 237.967 0 234.067 0 230C0 225.933 1.61547 222.033 4.49103 219.158C7.36659 216.282 11.2667 214.667 15.3333 214.667H230C242.2 214.667 253.9 219.513 262.527 228.14C271.154 236.766 276 248.467 276 260.667C276 272.867 271.154 284.567 262.527 293.194C253.9 301.82 242.2 306.667 230 306.667C217.273 306.667 205.773 301.453 197.493 293.173C191.667 287.193 191.667 277.533 197.493 271.553C198.912 270.132 200.597 269.004 202.452 268.235C204.307 267.465 206.295 267.069 208.303 267.069C210.312 267.069 212.3 267.465 214.155 268.235C216.01 269.004 217.695 270.132 219.113 271.553C221.873 274.313 225.707 276 230 276C234.067 276 237.967 274.385 240.842 271.509C243.718 268.633 245.333 264.733 245.333 260.667C245.333 256.6 243.718 252.7 240.842 249.824C237.967 246.949 234.067 245.333 230 245.333Z" fill="black"/>
</svg>
